<svg xmlns="http://www.w3.org/2000/svg" width="65.8641" height="30.48621" viewBox="0 0 65.8641 30.48621" creator="Katerina Limpitsouni"><path d="M55.09237,.84053c-3.57528,.92964-3.18218,4.94623-4.90895,7.45184-1.93413,2.8065-5.93296,3.27233-8.92967,2.18409-1.78609-.6486-3.37187-1.75457-4.76425-3.03263-1.23383-1.13253-2.22566-2.50536-3.47477-3.6155-1.06838-.94952-2.32953-1.57638-3.78863-1.4364-1.89556,.18185-3.69745,1.34765-5.37013,2.16769-3.82837,1.87688-7.65674,3.75376-11.48511,5.63064-3.19168,1.56474-6.83543,2.89452-9.62525,5.1454C.25633,17.34405-.70995,20.36111,.55552,23.37472c.89478,2.13084,2.93059,4.33357,5.07417,5.27386,2.3472,1.02961,5.28392,1.0848,7.79476,1.28478,4.36495,.34766,8.74938,.46432,13.12662,.51741,9.19241,.11149,18.4412-.01122,27.60596-.78726,3.14253-.2661,7.12222-.36852,9.82214-2.17177,3.27538-2.18759,1.53031-5.76386,.35555-8.67008-1.65187-4.08653-3.30373-8.17306-4.9556-12.2596-.81035-2.00471-1.6207-4.00943-2.43105-6.01414-.18407-.45536-.63613-.69693-1.10175-.44822-.4034,.21547-.8068,.43095-1.2102,.64642-.85179,.45498-.09498,1.75032,.75708,1.29521,.4034-.21547,.8068-.43095,1.2102-.64642l-1.10175-.44822c1.55836,3.85522,3.11673,7.71044,4.67509,11.56566,.74801,1.85051,1.49603,3.70101,2.24404,5.55152,.70264,1.73826,1.88616,3.75409,2.02712,5.64221,.28756,3.85166-6.33675,4.08642-9.11565,4.35188-8.37861,.80038-16.84673,.93204-25.25795,.91701-4.35418-.00778-8.71105-.08249-13.05977-.30925-3.01624-.15728-6.09121-.30666-9.05838-.9082-3.90926-.79253-8.41234-5.68092-5.69782-9.74908,1.84192-2.76042,5.82067-4.04771,8.6609-5.44015,3.53388-1.73251,7.06776-3.46501,10.60164-5.19752,2.02418-.99236,4.02751-2.08521,6.09813-2.97671,1.15684-.49808,2.3332-.76253,3.4927-.12494,.67794,.37279,1.22353,.95963,1.74185,1.52302,2.45174,2.66495,4.99359,5.25844,8.57389,6.31971,2.81508,.83445,6.05901,.44546,8.42837-1.35666,1.21825-.92659,2.00257-2.14253,2.51852-3.57155,.64752-1.79341,.9429-4.33145,3.11676-4.89669,.93352-.24273,.53774-1.68992-.39876-1.44642h0Z" fill="#fab44a" origin="undraw"/><path d="M10.42256,11.51757c-.85615,1.18874-.91481,2.75869-.6937,4.1531,.06163,.38868,.56698,.63891,.92259,.52383,.42204-.13658,.58987-.50608,.52383-.92259-.00705-.04321-.01371-.08648-.01999-.1298,.01188,.09182,.01238,.09393,.0015,.00632-.00865-.08471-.01827-.16921-.02502-.25411-.0131-.16483-.02016-.33015-.02041-.4955-.00024-.15887,.00571-.31777,.01867-.47611,.00618-.07558,.00883-.15545,.02383-.22987-.0408,.20236,.00379-.00877,.01154-.05205,.04926-.27525,.12733-.53923,.22325-.80141,.03086-.07626,.02546-.06397-.0162,.03688,.01372-.03099,.02788-.06177,.04248-.09235,.02886-.06037,.05944-.11993,.09185-.17847,.06349-.11469,.13442-.22445,.211-.33078,.23006-.31943,.06579-.84922-.26906-1.02614-.38802-.20501-.7806-.07187-1.02614,.26906h0Z" fill="#fab44a"/><path d="M13.82904,9.82737c-.85924,1.12825-.79559,2.75674-.44556,4.05571,.10206,.37874,.53861,.64809,.92259,.52383,.38846-.12571,.63321-.51667,.52383-.92259-.04469-.16586-.08454-.33279-.1164-.50162-.0152-.08056-.03512-.16431-.04113-.24615,.01465,.1995-.00549-.06647-.00874-.10287-.02637-.29508-.02847-.59272,.00095-.88765,.0201-.20156-.02452,.11182,.00448-.04129,.01304-.06885,.02429-.13782,.0395-.20628,.02927-.13172,.06608-.26183,.11161-.38888,.01104-.03083,.02259-.06146,.03465-.09189-.04508,.10407-.05128,.11926-.01859,.04558,.02813-.05687,.05475-.11414,.08538-.16978,.05962-.1083,.12777-.21074,.20264-.30904,.10967-.14401,.12115-.41253,.07561-.57792-.04791-.17397-.18242-.3625-.34467-.44822-.396-.20923-.77134-.06551-1.02614,.26906h0Z" fill="#fab44a"/><path d="M18.09895,7.87965c-.57282,1.04381-.4872,2.32996-.13233,3.43029,.12023,.37277,.52554,.65232,.92259,.52383,.373-.12071,.65278-.52276,.52383-.92259-.08275-.25658-.15-.51763-.19421-.7837-.00564-.03392-.01092-.0679-.01583-.10193,.01497,.11503,.01746,.13103,.00748,.04799-.0043-.04983-.01018-.09949-.01399-.14939-.00922-.12087-.01333-.24211-.01167-.36333,.00159-.11603,.01066-.23092,.02132-.34638,.01502-.16274-.03428,.18046-.00185,.02274,.01168-.0568,.02112-.11387,.03434-.17039,.02229-.09531,.04959-.18952,.08267-.28166,.06858-.19101-.0568,.10698,.00102-.00793,.02369-.04707,.04646-.09424,.07183-.14047,.18872-.3439,.09561-.83347-.26906-1.02614-.35141-.18566-.82457-.09825-1.02614,.26906h0Z" fill="#fab44a"/><path d="M21.47048,6.11412c-.4302,1.19905-.42495,2.57695,.02503,3.76963,.13807,.36595,.51251,.65654,.92259,.52383,.35755-.11571,.6721-.52959,.52383-.92259-.09777-.25914-.17512-.5248-.22759-.79687-.01483-.07691-.0321-.15585-.03916-.23394,.0118,.13054,.00651,.04334-.00087-.03629-.01278-.1379-.01969-.27638-.02071-.41487-.00103-.13855,.00374-.27721,.01455-.41534,.00464-.05928,.01092-.11826,.01704-.17739,.01053-.08622,.00944-.07865-.00327,.02271,.00595-.03917,.01237-.07825,.01928-.11726,.04864-.27372,.12186-.54128,.21571-.80286,.13268-.36982-.14945-.83732-.52383-.92259-.42145-.09599-.78053,.12788-.92259,.52383h0Z" fill="#fab44a"/><path d="M.39451,20.04299c2.53432,2.75639,6.39056,3.2317,9.90472,3.71901,4.60924,.63916,9.23901,1.1244,13.88131,1.44581,9.10627,.63047,18.45499,.88531,27.55123-.03818,4.55569-.46252,8.98107-1.54507,12.97481-3.84439,.83637-.48152,.08181-1.77818-.75708-1.29521-7.10001,4.0877-15.60564,4.04637-23.5652,4.14143-8.84364,.10562-17.69477-.37666-26.47486-1.43987-4.03036-.48805-9.49431-.52991-12.45428-3.74926-.65479-.71216-1.71339,.35073-1.06066,1.06066H.39451Z" fill="#fab44a"/></svg>